<svg xmlns="http://www.w3.org/2000/svg" xmlns:xlink="http://www.w3.org/1999/xlink" viewBox="0 0 466 147"><defs><clipPath id="a"><rect width="466" height="147" transform="translate(0.136 -0.513)" fill="#fff"/></clipPath></defs><g transform="translate(-0.136 0.513)" clip-path="url(#a)"><path d="M6.464-1.583a88.6,88.6,0,0,0,24.4-9.22C30.52-.473,29.757,10.688,29.41,11.52a13.771,13.771,0,0,0-.347,2.773c0,3.674,3.466,7.556,6.725,7.556a4.423,4.423,0,0,0,3.882-2.773,8.046,8.046,0,0,0,.485-3.258c0-.277,0-.555-.069-1.525C39.74,4.31,39.671.151,39.671-16.349A57.342,57.342,0,0,0,45.7-20.786a30.134,30.134,0,0,1,4.16-2.981c2.01-1.179,2.565-1.941,2.565-3.328a11.254,11.254,0,0,0-2.288-6.031,12.66,12.66,0,0,0-7.9-4.3l-3.05,2.5c1.456.485,2.01,1.179,2.01,2.357a3.273,3.273,0,0,1-.763,2.149,59.958,59.958,0,0,1-8.25,8.874C24.627-14.754,15.753-9.832,3.552-5.742ZM64.628-30.491a20.424,20.424,0,0,1,6.378,4.3c3.328,4.09,4.3,5.477,5.338,7.834a8.053,8.053,0,0,0,.693,1.594,3.944,3.944,0,0,0,3.6,1.941c3.328,0,6.17-3.05,6.17-6.725,0-6.031-8.18-11.3-19.55-12.617ZM66.985,6.736c1.8,6.239,6.447,11.092,10.468,11.092a3.9,3.9,0,0,0,3.189-1.317,15.339,15.339,0,0,1,4.021-3.466C100.33,3.755,111.145-8.03,117.939-23l-3.674-3.882A72.094,72.094,0,0,1,95.062-4.91C87.089,1.121,77.453,6.113,73.848,6.113a4.3,4.3,0,0,1-4.16-2.634Zm77.3-19.411C149-11.427,155.444-6.227,159.6-.4c1.387,2.149,2.565,2.912,4.3,2.912,2.981,0,5.061-2.634,5.061-6.447a9.58,9.58,0,0,0-4.576-7.834c-5.546-3.744-11.577-5.685-20.1-6.517v-5.893a17.714,17.714,0,0,1,1.248-6.933,3.3,3.3,0,0,0,.485-1.733c0-3.4-5.061-5.685-12.548-5.685l-2.08,3.189c3.05.971,3.952,2.218,3.882,5.269l-.277,35.287a42.023,42.023,0,0,1-.347,5.269,19.692,19.692,0,0,0-.416,3.882c0,4.021,2.842,7.418,6.239,7.418,2.842,0,4.506-2.01,4.506-5.269a16.915,16.915,0,0,0-.069-1.8c-.485-8.735-.624-13.241-.624-19.065Zm13.241-15.39a10.373,10.373,0,0,1,6.586,5.615c.971,2.357,1.664,3.05,3.189,3.05a3.158,3.158,0,0,0,3.12-3.328c0-3.882-4.021-6.725-11.231-7.834Zm6.239-5.685a10.373,10.373,0,0,1,6.586,5.615c.971,2.357,1.664,3.05,3.189,3.05a3.158,3.158,0,0,0,3.12-3.328c0-3.882-4.021-6.725-11.231-7.834ZM181.441-23.7a10.623,10.623,0,0,0,1.387,5.269c1.248,2.01,3.4,3.4,5.2,3.4a8.4,8.4,0,0,0,2.981-.693,97.32,97.32,0,0,1,16.43-4.368C198.357-9.347,185.046.428,171.32,6.6l2.842,3.882c10.191-3.536,18.094-7.487,24.333-12.2l-.069,1.248c-.416,6.517-.763,10.4-1.179,13.241a14.088,14.088,0,0,0-.347,3.12,6.688,6.688,0,0,0,6.586,6.655,4.171,4.171,0,0,0,3.674-2.149,7.905,7.905,0,0,0,.693-3.882c0-1.179-.069-3.4-.139-5.546-.277-5.407-.347-8.8-.347-14.489,0-.624,0-2.912.069-5.13,1.525-1.248,4.853-4.16,5.615-4.853a9.223,9.223,0,0,1,3.813-2.218c1.664-.555,2.218-1.248,2.218-2.634,0-3.6-4.645-9.428-7.557-9.428a2.988,2.988,0,0,0-1.664.555,6.766,6.766,0,0,1-3.05,1.387l-.485.069a157.487,157.487,0,0,1-17.262,1.594c-2.912,0-4.229-.624-4.922-2.218Zm9.428-13.033a15.657,15.657,0,0,1,8.735,6.794c1.109,1.941,2.149,2.634,4.021,2.634a5.312,5.312,0,0,0,5.338-5.407c0-4.783-5.823-7.487-16.014-7.418ZM209.449-5.465c4.368,2.426,7.7,6.447,9.844,11.993,1.04,2.634,2.565,3.813,4.922,3.813,2.981,0,5.269-2.634,5.269-5.962,0-5.754-7.21-11.161-17.609-13.31ZM241.2-32.5A22.819,22.819,0,0,1,252.5-22.8c1.456,2.565,2.7,3.466,4.922,3.466,2.912,0,5.061-2.426,5.061-5.754,0-5.546-8.735-10.676-18.856-11.023ZM229.969-19.677c4.853,1.8,7.972,4.506,11.092,9.5,1.8,2.981,2.842,3.744,4.991,3.744,2.981,0,5.338-2.7,5.338-6.17,0-5.685-7.9-10.122-19.2-10.815Zm6.863,29.6c2.01,5.685,6.586,10.052,10.4,10.052a3.929,3.929,0,0,0,3.328-1.525c1.664-1.941,1.733-1.941,5.685-4.506,9.29-6.1,12.964-9.29,19.134-16.291,5.407-6.309,8.319-11.3,12.063-20.728l-3.882-4.021c-5.685,12.548-14.974,22.461-28.839,30.781-6.447,3.882-8.458,4.783-10.884,4.783-1.733,0-2.773-.624-4.3-2.426ZM289.173-30.63c.693,5.407,3.952,9.29,7.834,9.29a5,5,0,0,0,2.634-.693c2.842-2.08,16.153-3.882,31.751-4.368a57.687,57.687,0,0,1-9.359,17.539l4.437,3.189c3.12-2.565,8.458-8.8,12.2-14.212,1.456-2.149,2.08-2.842,3.189-3.12a2.247,2.247,0,0,0,1.8-2.288c0-2.981-6.586-9.567-9.5-9.567a3.647,3.647,0,0,0-2.218.832c-1.872,1.387-3.05,1.594-9.5,1.8-3.952.139-7.071.347-11.023.624-8.18.624-10.953.763-13.449.763-3.189,0-4.714-.624-6.239-2.565Zm10.676,52.341c11.369-5.407,16.569-13.449,19-29.186.347-2.565.416-2.912,1.317-4.16a2.993,2.993,0,0,0,.693-1.872,4.262,4.262,0,0,0-1.8-2.981c-2.01-1.8-4.714-2.634-8.111-2.634a23.27,23.27,0,0,0-2.773.139l-2.08,3.6c2.773.485,3.536,1.456,3.536,4.16,0,6.655-1.387,13.657-3.6,18.163a30.024,30.024,0,0,1-9.983,10.676Z" transform="translate(93.996 106.935)" fill="#d4d4d4"/><text transform="translate(-24.864 123.487)" fill="#d4d4d4" font-size="147" font-family="TBUDMinStd-Heavy, TBUDMincho Std" font-weight="800" letter-spacing="-0.186em"><tspan x="0" y="0">中</tspan></text></g></svg>
