<svg xmlns="http://www.w3.org/2000/svg" viewBox="0 0 24 32"><title>help-icon-white</title><g id="a188346c-bbe9-4f8b-9d80-345b128c98fa" data-name="レイヤー 2"><g id="ae2d5c65-77f2-4f80-a2b6-bbe2c853c20d" data-name="レイヤー 1"><rect y="30" width="24" height="2" rx="1" fill="#fff"/><path d="M5.15 3.52a1 1 0 0 1 0-1 2.17 2.17.0 0 1 .59-.58A10.28 10.28.0 0 1 11.8.0 6.78 6.78.0 0 1 17 1.92 5.49 5.49.0 0 1 19 6a5.91 5.91.0 0 1-2 5c-1.11 1.19-3 3-3.61 3.7S13 16.94 13 18.06 13.13 20 12 20H10c-1.12.0-1-.71-1-1.63a16.45 16.45.0 0 1 .13-3.79 6.46 6.46.0 0 1 2.35-3.22 15 15 0 0 0 2.38-2.19A3.81 3.81.0 0 0 15 6c-.26-1.38-1.76-1.87-3-2A5.51 5.51.0 0 0 9 5c-.52.33-1.19 1-2 1-.44.0-.9-.89-1.1-1.27zM8 25a3.18 3.18.0 0 1 .23-1.18 2.85 2.85.0 0 1 .62-.95A3 3 0 0 1 11 22a2.9 2.9.0 0 1 1.18.24 3.12 3.12.0 0 1 .95.64 2.89 2.89.0 0 1 .64.95 3 3 0 0 1 0 2.37 3 3 0 0 1-.64.94 2.92 2.92.0 0 1-.95.63A3.06 3.06.0 0 1 11 28a3.15 3.15.0 0 1-1.19-.23 2.82 2.82.0 0 1-1-.63 2.9 2.9.0 0 1-.62-.94A3.15 3.15.0 0 1 8 25z" fill="#fff"/></g></g></svg>