<svg xmlns="http://www.w3.org/2000/svg" viewBox="0 0 27 32"><title>home-white</title><g id="a7303b38-22ec-4079-81a9-4d4eabaaa45c" data-name="レイヤー 2"><g id="f39d50bd-a939-4857-a0e8-ab202a240be1" data-name="レイヤー 1"><path d="M26.41,11,14.73.45a1.92,1.92,0,0,0-2.49,0L.58,11.07A1.76,1.76,0,0,0,0,12.38V30.15A1.87,1.87,0,0,0,1.89,32H25.11A1.87,1.87,0,0,0,27,30.15V12.34A1.73,1.73,0,0,0,26.41,11ZM17.5,30h-8V17h8ZM25,30H19.5V16.49A1.49,1.49,0,0,0,18,15H9A1.49,1.49,0,0,0,7.5,16.49V30H2V12.48L13.5,2,25,12.44Z" fill="#fff"/></g></g></svg>