<svg xmlns="http://www.w3.org/2000/svg" viewBox="0 0 32 32"><title>info-icon</title><g id="a6134829-ef83-4158-aeb8-38741505adae" data-name="レイヤー 2"><g id="a991f184-7e05-4701-a1af-498f0810703f" data-name="レイヤー 1"><path d="M6 9a1 1 0 1 0 1 1A1 1 0 0 0 6 9z" fill="#fff"/><path d="M25.88 9H10.12A1.07 1.07.0 0 0 9 10a1.07 1.07.0 0 0 1.12 1H25.88A1.07 1.07.0 0 0 27 10 1.07 1.07.0 0 0 25.88 9z" fill="#fff"/><path d="M6 15a1 1 0 1 0 1 1 1 1 0 0 0-1-1z" fill="#fff"/><path d="M25.88 15H10.12a1 1 0 1 0 0 2H25.88a1 1 0 1 0 0-2z" fill="#fff"/><path d="M6 21a1 1 0 1 0 1 1 1 1 0 0 0-1-1z" fill="#fff"/><path d="M25.88 21H10.12a1 1 0 1 0 0 2H25.88a1 1 0 1 0 0-2z" fill="#fff"/><path d="M28.71.0H3.29A3.27 3.27.0 0 0 0 3.24V28.76A3.27 3.27.0 0 0 3.29 32H28.71A3.27 3.27.0 0 0 32 28.76V3.24A3.27 3.27.0 0 0 28.71.0zM30 28.76A1.17 1.17.0 0 1 28.71 30H3.29A1.17 1.17.0 0 1 2 28.76V3.24A1.17 1.17.0 0 1 3.29 2H28.71A1.17 1.17.0 0 1 30 3.24z" fill="#fff"/></g></g></svg>