<svg xmlns="http://www.w3.org/2000/svg" viewBox="0 0 23 32"><title>lock-icon</title><g id="b9db47a6-c5d9-4ab4-9b66-bdcaf153f72c" data-name="レイヤー 2"><g id="bc9680d2-4d0f-4a9b-9f30-1ce49b47f4a9" data-name="レイヤー 1"><path d="M19.94 13H19V7.5a7.5 7.5.0 0 0-15 0V13H2.79A2.79 2.79.0 0 0 0 15.79V29.21A2.79 2.79.0 0 0 2.79 32H20.21A2.79 2.79.0 0 0 23 29.21V16.06A3.06 3.06.0 0 0 19.94 13zM6 7.5a5.5 5.5.0 0 1 11 0V13H6zM21 29.21a.8.8.0 0 1-.79.79H2.79A.8.8.0 0 1 2 29.21V15.79A.8.8.0 0 1 2.79 15H19.94A1.06 1.06.0 0 1 21 16.06z" fill="#fff"/><path d="M11.5 17a3.49 3.49.0 0 0-.5 7v3a.5.5.0 0 0 1 0V24a3.49 3.49.0 0 0-.5-7zm0 6A2.5 2.5.0 1 1 14 20.5 2.5 2.5.0 0 1 11.5 23z" fill="#fff"/></g></g></svg>