<svg xmlns="http://www.w3.org/2000/svg" viewBox="0 0 64 64"><title>scan-icon</title><g id="a0ebb255-ec82-485b-ad01-2873be0cf023" data-name="レイヤー 2"><g id="ea81b607-6610-48ec-af27-123db78ddef5" data-name="レイヤー 1"><circle cx="32" cy="32" r="32" fill="#ea2027"/><path d="M17 25a1 1 0 0 1-1-1V21a5 5 0 0 1 5-5h3a1 1 0 0 1 0 2H21a3 3 0 0 0-3 3v3a1 1 0 0 1-1 1z" fill="#fff"/><path d="M24 48H21a5 5 0 0 1-5-5V40a1 1 0 0 1 2 0v3a3 3 0 0 0 3 3h3a1 1 0 0 1 0 2z" fill="#fff"/><path d="M43 48H40a1 1 0 0 1 0-2h3a3 3 0 0 0 3-3V40a1 1 0 0 1 2 0v3a5 5 0 0 1-5 5z" fill="#fff"/><path d="M47 25a1 1 0 0 1-1-1V21a3 3 0 0 0-3-3H40a1 1 0 0 1 0-2h3a5 5 0 0 1 5 5v3a1 1 0 0 1-1 1z" fill="#fff"/><path d="M28.47 30H22.53A1.54 1.54.0 0 1 21 28.47V22.53A1.54 1.54.0 0 1 22.53 21h5.94A1.54 1.54.0 0 1 30 22.53v5.94A1.54 1.54.0 0 1 28.47 30zM23 28h5V23H23z" fill="#fff"/><path d="M28.47 43H22.53A1.54 1.54.0 0 1 21 41.47V35.53A1.54 1.54.0 0 1 22.53 34h5.94A1.54 1.54.0 0 1 30 35.53v5.94A1.54 1.54.0 0 1 28.47 43zM23 41h5V36H23z" fill="#fff"/><path d="M41.47 30H35.53A1.54 1.54.0 0 1 34 28.47V22.53A1.54 1.54.0 0 1 35.53 21h5.94A1.54 1.54.0 0 1 43 22.53v5.94A1.54 1.54.0 0 1 41.47 30zM36 28h5V23H36z" fill="#fff"/><path d="M32 30a1 1 0 0 1-1-1V22a1 1 0 0 1 2 0v7a1 1 0 0 1-1 1z" fill="#fff"/><path d="M32 36a1 1 0 0 1-1-1V33H22a1 1 0 0 1 0-2H32a1 1 0 0 1 1 1v3a1 1 0 0 1-1 1z" fill="#fff"/><path d="M35 43H32a1 1 0 0 1-1-1V38a1 1 0 0 1 2 0v3h1V35a1 1 0 0 1 2 0v7a1 1 0 0 1-1 1z" fill="#fff"/><path d="M38 36a1 1 0 0 1-1-1V33H35a1 1 0 0 1 0-2h3a1 1 0 0 1 1 1v3a1 1 0 0 1-1 1z" fill="#fff"/><path d="M42 43H38a1 1 0 0 1-1-1V38a1 1 0 0 1 2 0v3h3a1 1 0 0 1 0 2z" fill="#fff"/><path d="M42 40a1 1 0 0 1-1-1V32a1 1 0 0 1 2 0v7a1 1 0 0 1-1 1z" fill="#fff"/></g></g></svg>