<svg style="cursor:pointer;" xmlns="http://www.w3.org/2000/svg" xmlns:xlink="http://www.w3.org/1999/xlink" viewBox="0 0 32 32"><defs><radialGradient id="f2142f2a-79b3-4855-b2e3-fa9ade1387af" cx="16" cy="16" r="16" gradientUnits="userSpaceOnUse"><stop offset="0" stop-color="#1289a7"/><stop offset="0.21" stop-color="#1286a4"/><stop offset="0.4" stop-color="#117e99"/><stop offset="0.57" stop-color="#0f6f87"/><stop offset="0.74" stop-color="#0d5b6e"/><stop offset="0.9" stop-color="#0a414e"/><stop offset="0.93" stop-color="#093b47"/></radialGradient></defs><title>zoom-icon_1</title><g id="abc3c301-5569-4bfb-9fb2-9a1a37abd963" data-name="レイヤー 2"><g id="a45630ee-1d4c-400a-a816-ed40854d3166" data-name="レイヤー 1"><circle cx="16" cy="16" r="16" fill="url(#f2142f2a-79b3-4855-b2e3-fa9ade1387af)"/><path d="M20.05,14.86H16v-4a.55.55,0,0,0-.57-.52.54.54,0,0,0-.57.52v4H10.8a.54.54,0,0,0-.51.57.55.55,0,0,0,.51.57h4.06v4.06a.54.54,0,0,0,.57.51.55.55,0,0,0,.57-.51V16h4.05a.55.55,0,0,0,.52-.57A.54.54,0,0,0,20.05,14.86Z" fill="#fff"/><path d="M24.81,23.19l-2.58-2.57A8.47,8.47,0,0,0,24,15.43,8.57,8.57,0,1,0,15.43,24a8.47,8.47,0,0,0,5.19-1.77l2.57,2.58a1.15,1.15,0,0,0,1.62-1.62ZM8,15.43a7.43,7.43,0,1,1,7.43,7.43A7.43,7.43,0,0,1,8,15.43Z" fill="#fff"/></g></g></svg>
